<?xml version="1.0" encoding="utf-8"?>
<!-- Generator: Adobe Illustrator 22.0.1, SVG Export Plug-In . SVG Version: 6.00 Build 0)  -->
<svg version="1.1" id="Capa_1" xmlns="http://www.w3.org/2000/svg" xmlns:xlink="http://www.w3.org/1999/xlink" x="0px" y="0px"
	 viewBox="0 0 44 44" style="enable-background:new 0 0 44 44;" xml:space="preserve">
<path d="M0,22c0,12.2,9.8,22,22,22s22-9.8,22-22S34.2,0,22,0S0,9.8,0,22z M8.9,22c0-0.2,0.1-0.5,0.3-0.7l9-9
	c0.2-0.2,0.4-0.3,0.7-0.3s0.5,0.1,0.7,0.3l1.4,1.4c0.4,0.4,0.4,1,0,1.4l-4,4c-0.3,0.4,0,0.9,0.4,0.9H34c0.6,0,1,0.4,1,1v2
	c0,0.6-0.4,1-1,1H17.5c-0.5,0-0.7,0.6-0.4,0.9l4,4c0.4,0.4,0.4,1,0,1.4l-1.4,1.4C19.5,31.9,19.3,32,19,32s-0.5-0.1-0.7-0.3l-9-9
	C9.1,22.5,9,22.3,8.9,22z"/>
</svg>
